<svg width="60" height="70" viewBox="0 0 60 70" fill="none" xmlns="http://www.w3.org/2000/svg">
<path d="M30 32.3076C33.1949 32.3076 36.3181 31.3602 38.9746 29.5852C41.6311 27.8102 43.7015 25.2873 44.9242 22.3356C46.1468 19.3839 46.4667 16.1359 45.8434 13.0024C45.2201 9.86884 43.6816 6.9905 41.4225 4.73135C39.1633 2.4722 36.285 0.933697 33.1515 0.310398C30.0179 -0.3129 26.7699 0.00699918 23.8182 1.22964C20.8665 2.45229 18.3436 4.52276 16.5686 7.17924C14.7936 9.83572 13.8462 12.9589 13.8462 16.1538C13.8462 20.4381 15.5481 24.5469 18.5775 27.5763C21.607 30.6057 25.7157 32.3076 30 32.3076ZM30 4.61538C32.2821 4.61538 34.5129 5.2921 36.4104 6.55996C38.3079 7.82782 39.7868 9.62988 40.6601 11.7383C41.5335 13.8466 41.762 16.1666 41.3167 18.4049C40.8715 20.6431 39.7726 22.699 38.1589 24.3127C36.5452 25.9264 34.4893 27.0253 32.251 27.4706C30.0128 27.9158 27.6928 27.6873 25.5844 26.8139C23.4761 25.9406 21.674 24.4617 20.4061 22.5642C19.1383 20.6667 18.4616 18.4359 18.4616 16.1538C18.4616 13.0936 19.6772 10.1588 21.8411 7.99491C24.005 5.83104 26.9398 4.61538 30 4.61538Z" fill="#DCD9D9"/>
<path d="M58.7768 49.3155C55.076 45.404 50.6163 42.2883 45.6704 40.159C40.7245 38.0297 35.3963 36.9315 30.0115 36.9315C24.6267 36.9315 19.2985 38.0297 14.3526 40.159C9.40666 42.2883 4.94698 45.404 1.24616 49.3155C0.443803 50.1725 -0.00181595 51.303 5.56223e-06 52.477V64.6154C5.56223e-06 65.8395 0.486267 67.0134 1.35182 67.879C2.21737 68.7445 3.39131 69.2308 4.61538 69.2308H55.3845C56.6086 69.2308 57.7825 68.7445 58.6481 67.879C59.5136 67.0134 59.9999 65.8395 59.9999 64.6154V52.477C60.008 51.3062 59.5708 50.176 58.7768 49.3155ZM55.3845 64.6154H4.61538V52.4539C7.8859 49.0101 11.823 46.2678 16.187 44.3938C20.551 42.5199 25.2506 41.5535 30 41.5535C34.7493 41.5535 39.4489 42.5199 43.8129 44.3938C48.1769 46.2678 52.114 49.0101 55.3845 52.4539V64.6154Z" fill="#DCD9D9"/>
</svg>
