<svg width="17" height="17" viewBox="0 0 17 17" fill="none" xmlns="http://www.w3.org/2000/svg">
<path d="M9.91597 3.54167C9.91668 2.75896 8.33001 2.125 6.37501 2.125C4.42001 2.125 2.83476 2.75967 2.83334 3.54167C2.83334 4.32437 4.41859 4.95833 6.37501 4.95833C8.33143 4.95833 9.91668 4.32437 9.91668 3.54167" stroke="#267DED" stroke-linecap="round" stroke-linejoin="round"/>
<path d="M9.91666 3.54199V9.03866" stroke="#267DED" stroke-linecap="round" stroke-linejoin="round"/>
<path d="M2.83426 6.375C2.83426 7.15771 4.41951 7.79167 6.37593 7.79167C8.33234 7.79167 9.91759 7.15771 9.91759 6.375" stroke="#267DED" stroke-linecap="round" stroke-linejoin="round"/>
<path d="M13.9417 9.43341C15.1862 10.6779 15.1862 12.6967 13.9417 13.9412C12.6972 15.1858 10.6784 15.1858 9.43386 13.9412C8.18932 12.6967 8.18932 10.6779 9.43386 9.43341C10.6784 8.18886 12.6972 8.18886 13.9417 9.43341" stroke="#267DED" stroke-linecap="round" stroke-linejoin="round"/>
<path d="M8.85793 10.2174C8.21901 10.4688 7.3428 10.6247 6.37522 10.6247C4.41951 10.6247 2.83426 9.99072 2.83426 9.20801" stroke="#267DED" stroke-linecap="round" stroke-linejoin="round"/>
<path d="M8.81522 13.0648C8.17984 13.3078 7.32347 13.4587 6.37501 13.4587C4.4193 13.4587 2.83405 12.8247 2.83334 12.042V3.54199" stroke="#267DED" stroke-linecap="round" stroke-linejoin="round"/>
</svg>
