<svg width="14" height="14" viewBox="0 0 14 14" fill="none" xmlns="http://www.w3.org/2000/svg">
<mask id="path-1-inside-1_9_1070" fill="white">
<path d="M13.3556 7.70857C13.356 7.92363 13.2878 8.13322 13.1608 8.30675C13.0337 8.48028 12.8545 8.60867 12.6494 8.67319C12.4442 8.7377 12.2238 8.73496 12.0203 8.66537C11.8168 8.59578 11.6409 8.46298 11.5182 8.28635H10.8769C10.8133 8.50591 10.7267 8.70813 10.6284 8.91035L9.73288 8.01479C9.82533 7.73746 9.88889 7.44279 9.88889 7.13079C9.88889 5.53612 8.59466 4.2419 6.99999 4.2419C6.68799 4.2419 6.39332 4.30545 6.11599 4.3979L5.22043 3.50234C5.59598 3.32323 5.99465 3.19612 6.42221 3.13256V2.32367C6.24558 2.20098 6.11278 2.02505 6.04319 1.82156C5.9736 1.61807 5.97086 1.39766 6.03537 1.19251C6.09989 0.987351 6.22828 0.80818 6.40181 0.681142C6.57534 0.554103 6.78493 0.485846 6.99999 0.486331C7.21505 0.485846 7.42464 0.554103 7.59817 0.681142C7.7717 0.80818 7.90009 0.987351 7.9646 1.19251C8.02912 1.39766 8.02638 1.61807 7.95679 1.82156C7.8872 2.02505 7.7544 2.20098 7.57777 2.32367V3.13256C8.26533 3.23078 8.88933 3.49656 9.42088 3.89523L10.1951 3.121C10.1373 2.79745 10.2298 2.46811 10.4667 2.21967C10.6689 2.029 10.9289 1.93078 11.1889 1.93078C11.4489 1.93078 11.7089 2.029 11.9111 2.21967C12.2982 2.62411 12.2982 3.26545 11.9111 3.66412C11.7089 3.85478 11.4489 3.95301 11.1889 3.95301C11.1311 3.95301 11.0733 3.95301 11.0098 3.93567L10.2356 4.7099C10.7648 5.40559 11.0491 6.25671 11.0444 7.13079H11.5182C11.6409 6.95416 11.8168 6.82136 12.0203 6.75177C12.2238 6.68218 12.4442 6.67944 12.6494 6.74396C12.8545 6.80847 13.0337 6.93686 13.1608 7.11039C13.2878 7.28392 13.356 7.49351 13.3556 7.70857ZM12.8413 12.5966L12.1076 13.3304L11.68 12.9086C11.4489 12.8797 11.2236 12.7873 11.0444 12.6197C10.8711 12.4406 10.7787 12.2153 10.7556 11.9841L9.25333 10.4761C9.06266 10.5975 8.86044 10.7304 8.64666 10.8228C8.85466 10.9904 8.99911 11.2446 9.02222 11.5335C9.06266 12.0881 8.64666 12.5735 8.08621 12.6197H8.0111C7.48532 12.6197 7.04621 12.2152 6.99999 11.6837C6.99999 11.4988 7.02888 11.3255 7.10399 11.1752H6.99999C6.46265 11.1752 5.95421 11.0712 5.48621 10.8864L4.86798 12.0246C5.01243 12.3077 5.01821 12.6544 4.85643 12.9548C4.79353 13.0717 4.7082 13.1751 4.60531 13.259C4.50242 13.3429 4.384 13.4057 4.25682 13.4438C4.12963 13.4819 3.99618 13.4946 3.86411 13.4811C3.73203 13.4676 3.60391 13.4281 3.48709 13.365C3.37022 13.3021 3.2669 13.2167 3.18303 13.1138C3.09915 13.0109 3.03638 12.8925 2.99828 12.7654C2.96019 12.6382 2.94752 12.5048 2.961 12.3727C2.97449 12.2406 3.01386 12.1125 3.07687 11.9957C3.24442 11.6895 3.53331 11.5104 3.85109 11.4641L4.48665 10.3086C4.0822 9.97347 3.73554 9.56902 3.47554 9.11258L2.60309 9.34947C2.49909 9.64991 2.25064 9.89258 1.92131 9.98502C1.82886 10.0197 1.7422 10.0197 1.65553 10.0197C1.2222 10.0197 0.800417 9.7308 0.679083 9.27435C0.534061 8.73124 0.852417 8.17657 1.38975 8.03213C1.47642 7.99746 1.56886 7.99746 1.65553 7.99746C1.89242 7.99746 2.12353 8.08413 2.30264 8.23435L3.05953 8.03213C2.99229 7.73634 2.95742 7.43412 2.95553 7.13079C2.74753 7.08457 2.54531 6.9979 2.37775 6.8419C1.99064 6.43746 1.99064 5.8019 2.37775 5.39745C2.57998 5.20679 2.83998 5.10857 3.09998 5.10857C3.22131 5.10857 3.34265 5.13168 3.4582 5.1779C3.51598 5.0739 3.58531 4.97568 3.64887 4.87168L0.707972 1.93078L1.44753 1.197L12.8413 12.5966ZM8.41555 9.63836L4.49243 5.71523C4.25554 6.13701 4.11109 6.61657 4.11109 7.13079C4.11109 8.72546 5.40532 10.0197 6.99999 10.0197C7.51999 10.0197 7.99955 9.87524 8.41555 9.63836ZM4.22087 1.78633C4.01865 1.50322 3.70665 1.353 3.38887 1.353C3.29642 1.353 3.20398 1.37033 3.11153 1.39344L4.35376 2.63567C4.43465 2.35256 4.39998 2.04056 4.22087 1.78633Z"/>
</mask>
<path d="M13.3556 7.70857C13.356 7.92363 13.2878 8.13322 13.1608 8.30675C13.0337 8.48028 12.8545 8.60867 12.6494 8.67319C12.4442 8.7377 12.2238 8.73496 12.0203 8.66537C11.8168 8.59578 11.6409 8.46298 11.5182 8.28635H10.8769C10.8133 8.50591 10.7267 8.70813 10.6284 8.91035L9.73288 8.01479C9.82533 7.73746 9.88889 7.44279 9.88889 7.13079C9.88889 5.53612 8.59466 4.2419 6.99999 4.2419C6.68799 4.2419 6.39332 4.30545 6.11599 4.3979L5.22043 3.50234C5.59598 3.32323 5.99465 3.19612 6.42221 3.13256V2.32367C6.24558 2.20098 6.11278 2.02505 6.04319 1.82156C5.9736 1.61807 5.97086 1.39766 6.03537 1.19251C6.09989 0.987351 6.22828 0.80818 6.40181 0.681142C6.57534 0.554103 6.78493 0.485846 6.99999 0.486331C7.21505 0.485846 7.42464 0.554103 7.59817 0.681142C7.7717 0.80818 7.90009 0.987351 7.9646 1.19251C8.02912 1.39766 8.02638 1.61807 7.95679 1.82156C7.8872 2.02505 7.7544 2.20098 7.57777 2.32367V3.13256C8.26533 3.23078 8.88933 3.49656 9.42088 3.89523L10.1951 3.121C10.1373 2.79745 10.2298 2.46811 10.4667 2.21967C10.6689 2.029 10.9289 1.93078 11.1889 1.93078C11.4489 1.93078 11.7089 2.029 11.9111 2.21967C12.2982 2.62411 12.2982 3.26545 11.9111 3.66412C11.7089 3.85478 11.4489 3.95301 11.1889 3.95301C11.1311 3.95301 11.0733 3.95301 11.0098 3.93567L10.2356 4.7099C10.7648 5.40559 11.0491 6.25671 11.0444 7.13079H11.5182C11.6409 6.95416 11.8168 6.82136 12.0203 6.75177C12.2238 6.68218 12.4442 6.67944 12.6494 6.74396C12.8545 6.80847 13.0337 6.93686 13.1608 7.11039C13.2878 7.28392 13.356 7.49351 13.3556 7.70857ZM12.8413 12.5966L12.1076 13.3304L11.68 12.9086C11.4489 12.8797 11.2236 12.7873 11.0444 12.6197C10.8711 12.4406 10.7787 12.2153 10.7556 11.9841L9.25333 10.4761C9.06266 10.5975 8.86044 10.7304 8.64666 10.8228C8.85466 10.9904 8.99911 11.2446 9.02222 11.5335C9.06266 12.0881 8.64666 12.5735 8.08621 12.6197H8.0111C7.48532 12.6197 7.04621 12.2152 6.99999 11.6837C6.99999 11.4988 7.02888 11.3255 7.10399 11.1752H6.99999C6.46265 11.1752 5.95421 11.0712 5.48621 10.8864L4.86798 12.0246C5.01243 12.3077 5.01821 12.6544 4.85643 12.9548C4.79353 13.0717 4.7082 13.1751 4.60531 13.259C4.50242 13.3429 4.384 13.4057 4.25682 13.4438C4.12963 13.4819 3.99618 13.4946 3.86411 13.4811C3.73203 13.4676 3.60391 13.4281 3.48709 13.365C3.37022 13.3021 3.2669 13.2167 3.18303 13.1138C3.09915 13.0109 3.03638 12.8925 2.99828 12.7654C2.96019 12.6382 2.94752 12.5048 2.961 12.3727C2.97449 12.2406 3.01386 12.1125 3.07687 11.9957C3.24442 11.6895 3.53331 11.5104 3.85109 11.4641L4.48665 10.3086C4.0822 9.97347 3.73554 9.56902 3.47554 9.11258L2.60309 9.34947C2.49909 9.64991 2.25064 9.89258 1.92131 9.98502C1.82886 10.0197 1.7422 10.0197 1.65553 10.0197C1.2222 10.0197 0.800417 9.7308 0.679083 9.27435C0.534061 8.73124 0.852417 8.17657 1.38975 8.03213C1.47642 7.99746 1.56886 7.99746 1.65553 7.99746C1.89242 7.99746 2.12353 8.08413 2.30264 8.23435L3.05953 8.03213C2.99229 7.73634 2.95742 7.43412 2.95553 7.13079C2.74753 7.08457 2.54531 6.9979 2.37775 6.8419C1.99064 6.43746 1.99064 5.8019 2.37775 5.39745C2.57998 5.20679 2.83998 5.10857 3.09998 5.10857C3.22131 5.10857 3.34265 5.13168 3.4582 5.1779C3.51598 5.0739 3.58531 4.97568 3.64887 4.87168L0.707972 1.93078L1.44753 1.197L12.8413 12.5966ZM8.41555 9.63836L4.49243 5.71523C4.25554 6.13701 4.11109 6.61657 4.11109 7.13079C4.11109 8.72546 5.40532 10.0197 6.99999 10.0197C7.51999 10.0197 7.99955 9.87524 8.41555 9.63836ZM4.22087 1.78633C4.01865 1.50322 3.70665 1.353 3.38887 1.353C3.29642 1.353 3.20398 1.37033 3.11153 1.39344L4.35376 2.63567C4.43465 2.35256 4.39998 2.04056 4.22087 1.78633Z" fill="#267DED"/>
<path d="M11.5182 8.28635L12.2142 7.8029L11.9614 7.43892H11.5182V8.28635ZM10.8769 8.28635V7.43892H10.24L10.0629 8.05072L10.8769 8.28635ZM10.6284 8.91035L10.0292 9.50958L10.8708 10.3511L11.3907 9.2806L10.6284 8.91035ZM9.73288 8.01479L8.92894 7.74681L8.76332 8.24368L9.13366 8.61402L9.73288 8.01479ZM6.11599 4.3979L5.51676 4.99712L5.8871 5.36747L6.38397 5.20184L6.11599 4.3979ZM5.22043 3.50234L4.85563 2.73744L3.77328 3.25364L4.6212 4.10157L5.22043 3.50234ZM6.42221 3.13256L6.54681 3.97078L7.26964 3.86334V3.13256H6.42221ZM6.42221 2.32367H7.26964V1.88049L6.90566 1.62766L6.42221 2.32367ZM6.99999 0.486331L6.99808 1.33377L7.0019 1.33376L6.99999 0.486331ZM7.57777 2.32367L7.09432 1.62766L6.73033 1.88049V2.32367H7.57777ZM7.57777 3.13256H6.73033V3.86754L7.45792 3.97148L7.57777 3.13256ZM9.42088 3.89523L8.91242 4.57318L9.5004 5.01416L10.0201 4.49446L9.42088 3.89523ZM10.1951 3.121L10.7943 3.72023L11.1071 3.40746L11.0293 2.97203L10.1951 3.121ZM10.4667 2.21967L9.88531 1.60308L9.86891 1.61855L9.85334 1.63487L10.4667 2.21967ZM11.9111 2.21967L12.5233 1.6337L12.5083 1.618L12.4925 1.60308L11.9111 2.21967ZM11.9111 3.66412L12.4925 4.2807L12.5061 4.26788L12.5191 4.25447L11.9111 3.66412ZM11.0098 3.93567L11.2328 3.1181L10.7583 2.9887L10.4106 3.33645L11.0098 3.93567ZM10.2356 4.7099L9.63633 4.11067L9.11304 4.63396L9.56108 5.22295L10.2356 4.7099ZM11.0444 7.13079L10.197 7.12625L10.1925 7.97823H11.0444V7.13079ZM11.5182 7.13079V7.97823H11.9614L12.2142 7.61424L11.5182 7.13079ZM12.8413 12.5966L13.4406 13.1958L14.0396 12.5967L13.4407 11.9975L12.8413 12.5966ZM12.1076 13.3304L11.5124 13.9337L12.1116 14.5248L12.7068 13.9296L12.1076 13.3304ZM11.68 12.9086L12.2751 12.3053L12.0704 12.1034L11.7851 12.0677L11.68 12.9086ZM11.0444 12.6197L10.4355 13.209L10.4501 13.2242L10.4655 13.2386L11.0444 12.6197ZM10.7556 11.9841L11.5988 11.8998L11.5688 11.5997L11.3559 11.3861L10.7556 11.9841ZM9.25333 10.4761L9.8537 9.87806L9.373 9.39551L8.79836 9.76119L9.25333 10.4761ZM8.64666 10.8228L8.3103 10.045L7.02187 10.6021L8.11504 11.4827L8.64666 10.8228ZM9.02222 11.5335L9.86743 11.4718L9.86695 11.4659L9.02222 11.5335ZM8.08621 12.6197V13.4671H8.1211L8.15587 13.4643L8.08621 12.6197ZM6.99999 11.6837H6.15255V11.7205L6.15574 11.7571L6.99999 11.6837ZM7.10399 11.1752L7.86196 11.5542L8.47517 10.3278H7.10399V11.1752ZM5.48621 10.8864L5.79758 10.0982L5.09968 9.82249L4.74153 10.4819L5.48621 10.8864ZM4.86798 12.0246L4.1233 11.6201L3.91032 12.0122L4.11312 12.4097L4.86798 12.0246ZM4.85643 12.9548L4.11029 12.553L4.11011 12.5534L4.85643 12.9548ZM3.48709 13.365L3.88976 12.6194L3.88897 12.6189L3.48709 13.365ZM3.07687 11.9957L2.33343 11.5889L2.33098 11.5935L3.07687 11.9957ZM3.85109 11.4641L3.97307 12.3027L4.3904 12.242L4.59363 11.8725L3.85109 11.4641ZM4.48665 10.3086L5.22918 10.717L5.56684 10.1031L5.02733 9.65604L4.48665 10.3086ZM3.47554 9.11258L4.21189 8.69313L3.88698 8.12274L3.25348 8.29475L3.47554 9.11258ZM2.60309 9.34947L2.38103 8.53164L1.94879 8.64901L1.80227 9.07226L2.60309 9.34947ZM1.92131 9.98502L1.69228 9.16912L1.65754 9.17887L1.62375 9.19154L1.92131 9.98502ZM0.679083 9.27435L1.49808 9.05665L1.49783 9.05573L0.679083 9.27435ZM1.38975 8.03213L1.60975 8.85051L1.65805 8.83753L1.70448 8.81895L1.38975 8.03213ZM2.30264 8.23435L1.75807 8.88365L2.09568 9.16681L2.52138 9.05307L2.30264 8.23435ZM3.05953 8.03213L3.27827 8.85085L4.06682 8.64017L3.88588 7.84427L3.05953 8.03213ZM2.95553 7.13079L3.80295 7.12553L3.79876 6.45007L3.13937 6.30354L2.95553 7.13079ZM2.37775 6.8419L1.76555 7.42787L1.78243 7.4455L1.8003 7.46214L2.37775 6.8419ZM2.37775 5.39745L1.7964 4.78087L1.78059 4.79578L1.76555 4.81149L2.37775 5.39745ZM3.4582 5.1779L3.14347 5.96472L3.8365 6.24193L4.19899 5.58945L3.4582 5.1779ZM3.64887 4.87168L4.37197 5.31357L4.71989 4.74424L4.2481 4.27245L3.64887 4.87168ZM0.707972 1.93078L0.1111 1.32921L-0.492836 1.92842L0.108745 2.53001L0.707972 1.93078ZM1.44753 1.197L2.04691 0.597924L1.45003 0.00074017L0.850658 0.595427L1.44753 1.197ZM8.41555 9.63836L8.83489 10.3748L9.80053 9.82488L9.01477 9.03913L8.41555 9.63836ZM4.49243 5.71523L5.09165 5.11601L4.30106 4.32542L3.75355 5.30025L4.49243 5.71523ZM3.11153 1.39344L2.906 0.571312L1.45396 0.934322L2.51231 1.99267L3.11153 1.39344ZM4.35376 2.63567L3.75453 3.2349L4.77293 4.25329L5.16859 2.86848L4.35376 2.63567ZM12.5081 7.71048C12.5082 7.74488 12.4973 7.77841 12.477 7.80617L13.8445 8.80734C14.0783 8.48803 14.2039 8.10238 14.203 7.70666L12.5081 7.71048ZM12.477 7.80617C12.4566 7.83392 12.428 7.85446 12.3952 7.86478L12.9036 9.48159C13.2811 9.36288 13.6108 9.12664 13.8445 8.80734L12.477 7.80617ZM12.3952 7.86478C12.3624 7.8751 12.3271 7.87466 12.2945 7.86353L11.7461 9.46722C12.1205 9.59527 12.5261 9.6003 12.9036 9.48159L12.3952 7.86478ZM12.2945 7.86353C12.262 7.8524 12.2339 7.83116 12.2142 7.8029L10.8222 8.7698C11.048 9.09481 11.3717 9.33917 11.7461 9.46722L12.2945 7.86353ZM11.5182 7.43892H10.8769V9.13379H11.5182V7.43892ZM10.0629 8.05072C10.0179 8.20617 9.95342 8.36047 9.86617 8.5401L11.3907 9.2806C11.4999 9.05579 11.6088 8.80565 11.6909 8.52199L10.0629 8.05072ZM11.2277 8.31113L10.3321 7.41557L9.13366 8.61402L10.0292 9.50958L11.2277 8.31113ZM10.5368 8.28278C10.649 7.94614 10.7363 7.55862 10.7363 7.13079H9.04145C9.04145 7.32697 9.00161 7.52879 8.92894 7.74681L10.5368 8.28278ZM10.7363 7.13079C10.7363 5.0681 9.06269 3.39446 6.99999 3.39446V5.08933C8.12663 5.08933 9.04145 6.00415 9.04145 7.13079H10.7363ZM6.99999 3.39446C6.57216 3.39446 6.18465 3.48174 5.848 3.59395L6.38397 5.20184C6.602 5.12917 6.80381 5.08933 6.99999 5.08933V3.39446ZM6.71521 3.79867L5.81966 2.90311L4.6212 4.10157L5.51676 4.99712L6.71521 3.79867ZM5.58523 4.26724C5.88977 4.12199 6.20779 4.02118 6.54681 3.97078L6.29761 2.29434C5.78152 2.37105 5.3022 2.52446 4.85563 2.73744L5.58523 4.26724ZM7.26964 3.13256V2.32367H5.57477V3.13256H7.26964ZM6.90566 1.62766C6.8774 1.60804 6.85616 1.5799 6.84503 1.54735L5.24134 2.09578C5.36939 2.47021 5.61375 2.79392 5.93876 3.01967L6.90566 1.62766ZM6.84503 1.54735C6.8339 1.5148 6.83346 1.47954 6.84378 1.44672L5.22697 0.938292C5.10826 1.31579 5.1133 1.72134 5.24134 2.09578L6.84503 1.54735ZM6.84378 1.44672C6.8541 1.41391 6.87464 1.38525 6.90239 1.36493L5.90122 -0.00264186C5.58192 0.231114 5.34568 0.560795 5.22697 0.938292L6.84378 1.44672ZM6.90239 1.36493C6.93015 1.3446 6.96368 1.33369 6.99808 1.33376L7.0019 -0.361102C6.60618 -0.361993 6.22053 -0.236398 5.90122 -0.00264186L6.90239 1.36493ZM7.0019 1.33376C7.0363 1.33369 7.06983 1.3446 7.09758 1.36493L8.09875 -0.00264186C7.77945 -0.236398 7.3938 -0.361993 6.99808 -0.361102L7.0019 1.33376ZM7.09758 1.36493C7.12534 1.38525 7.14588 1.41391 7.1562 1.44672L8.77301 0.938292C8.6543 0.560795 8.41806 0.231114 8.09875 -0.00264186L7.09758 1.36493ZM7.1562 1.44672C7.16652 1.47954 7.16608 1.5148 7.15495 1.54735L8.75863 2.09578C8.88668 1.72134 8.89172 1.31579 8.77301 0.938292L7.1562 1.44672ZM7.15495 1.54735C7.14382 1.5799 7.12257 1.60804 7.09432 1.62766L8.06122 3.01967C8.38623 2.79392 8.63058 2.47021 8.75863 2.09578L7.15495 1.54735ZM6.73033 2.32367V3.13256H8.4252V2.32367H6.73033ZM7.45792 3.97148C8.00188 4.04918 8.4927 4.25838 8.91242 4.57318L9.92935 3.21728C9.28595 2.73474 8.52878 2.41238 7.69761 2.29364L7.45792 3.97148ZM10.0201 4.49446L10.7943 3.72023L9.59588 2.52178L8.82166 3.296L10.0201 4.49446ZM11.0293 2.97203C11.0179 2.90819 11.0337 2.85304 11.08 2.80446L9.85334 1.63487C9.42589 2.08318 9.25671 2.6867 9.36087 3.26998L11.0293 2.97203ZM11.048 2.83625C11.0907 2.79599 11.1419 2.77821 11.1889 2.77821V1.08334C10.7159 1.08334 10.2471 1.26201 9.88531 1.60308L11.048 2.83625ZM11.1889 2.77821C11.2359 2.77821 11.2871 2.79599 11.3298 2.83625L12.4925 1.60308C12.1307 1.26201 11.6619 1.08334 11.1889 1.08334V2.77821ZM11.2989 2.80563C11.3747 2.88477 11.3687 3.00626 11.3031 3.07377L12.5191 4.25447C13.2278 3.52464 13.2218 2.36346 12.5233 1.6337L11.2989 2.80563ZM11.3298 3.04753C11.2871 3.08779 11.2359 3.10557 11.1889 3.10557V4.80044C11.6619 4.80044 12.1307 4.62178 12.4925 4.2807L11.3298 3.04753ZM11.1889 3.10557C11.1732 3.10557 11.1666 3.10555 11.1613 3.10545C11.1569 3.10537 11.1584 3.1053 11.1633 3.10566C11.1748 3.1065 11.2003 3.10924 11.2328 3.1181L10.7868 4.75325C10.9742 4.80437 11.1396 4.80044 11.1889 4.80044V3.10557ZM10.4106 3.33645L9.63633 4.11067L10.8348 5.30912L11.609 4.5349L10.4106 3.33645ZM9.56108 5.22295C9.97713 5.76991 10.2007 6.43905 10.197 7.12625L11.8919 7.13534C11.8976 6.07437 11.5524 5.04128 10.91 4.19684L9.56108 5.22295ZM11.0444 7.97823H11.5182V6.28336H11.0444V7.97823ZM12.2142 7.61424C12.2339 7.58599 12.262 7.56474 12.2945 7.55361L11.7461 5.94993C11.3717 6.07798 11.048 6.32233 10.8222 6.64734L12.2142 7.61424ZM12.2945 7.55361C12.3271 7.54248 12.3624 7.54204 12.3952 7.55236L12.9036 5.93555C12.5261 5.81684 12.1205 5.82188 11.7461 5.94993L12.2945 7.55361ZM12.3952 7.55236C12.428 7.56268 12.4566 7.58322 12.477 7.61098L13.8445 6.60981C13.6108 6.2905 13.2811 6.05426 12.9036 5.93555L12.3952 7.55236ZM12.477 7.61098C12.4973 7.63874 12.5082 7.67226 12.5081 7.70666L14.203 7.71048C14.2039 7.31476 14.0783 6.92911 13.8445 6.60981L12.477 7.61098ZM12.2421 11.9974L11.5083 12.7311L12.7068 13.9296L13.4406 13.1958L12.2421 11.9974ZM12.7027 12.7271L12.2751 12.3053L11.0849 13.5119L11.5124 13.9337L12.7027 12.7271ZM11.7851 12.0677C11.7056 12.0577 11.6541 12.0296 11.6234 12.0008L10.4655 13.2386C10.793 13.5449 11.1922 13.7016 11.5749 13.7495L11.7851 12.0677ZM11.6534 12.0304C11.6269 12.003 11.605 11.9622 11.5988 11.8998L9.91232 12.0685C9.95231 12.4683 10.1153 12.8782 10.4355 13.209L11.6534 12.0304ZM11.3559 11.3861L9.8537 9.87806L8.65295 11.0742L10.1552 12.5822L11.3559 11.3861ZM8.79836 9.76119C8.5862 9.8962 8.44823 9.98534 8.3103 10.045L8.98302 11.6006C9.27265 11.4754 9.53912 11.2987 9.70829 11.1911L8.79836 9.76119ZM8.11504 11.4827C8.1495 11.5105 8.17372 11.554 8.17748 11.601L9.86695 11.4659C9.82449 10.9351 9.55982 10.4702 9.17828 10.1629L8.11504 11.4827ZM8.17703 11.5951C8.18336 11.682 8.11779 11.7668 8.01656 11.7751L8.15587 13.4643C9.17553 13.3802 9.94196 12.4943 9.86741 11.4718L8.17703 11.5951ZM8.08621 11.7723H8.0111V13.4671H8.08621V11.7723ZM8.0111 11.7723C7.93109 11.7723 7.85292 11.7101 7.84424 11.6103L6.15574 11.7571C6.2395 12.7204 7.03955 13.4671 8.0111 13.4671V11.7723ZM7.84742 11.6837C7.84742 11.5809 7.86439 11.5494 7.86196 11.5542L6.34602 10.7963C6.19336 11.1016 6.15255 11.4167 6.15255 11.6837H7.84742ZM7.10399 10.3278H6.99999V12.0227H7.10399V10.3278ZM6.99999 10.3278C6.57355 10.3278 6.17052 10.2455 5.79758 10.0982L5.17484 11.6745C5.7379 11.897 6.35176 12.0227 6.99999 12.0227V10.3278ZM4.74153 10.4819L4.1233 11.6201L5.61266 12.4291L6.23089 11.2908L4.74153 10.4819ZM4.11312 12.4097C4.13495 12.4525 4.13622 12.5049 4.11029 12.553L5.60257 13.3566C5.90019 12.8038 5.88991 12.1629 5.62285 11.6394L4.11312 12.4097ZM4.11011 12.5534C4.09999 12.5722 4.08626 12.5888 4.0697 12.6023L5.14092 13.9157C5.33014 13.7614 5.48707 13.5713 5.60274 13.3563L4.11011 12.5534ZM4.0697 12.6023C4.05315 12.6158 4.03409 12.6259 4.01362 12.6321L4.50001 14.2556C4.73391 14.1856 4.9517 14.0701 5.14092 13.9157L4.0697 12.6023ZM4.01362 12.6321C3.99315 12.6382 3.97168 12.6402 3.95043 12.638L3.77779 14.3241C4.02069 14.349 4.26611 14.3257 4.50001 14.2556L4.01362 12.6321ZM3.95043 12.638C3.92917 12.6359 3.90856 12.6295 3.88976 12.6194L3.08442 14.1107C3.29927 14.2267 3.53488 14.2992 3.77779 14.3241L3.95043 12.638ZM3.88897 12.6189C3.8701 12.6088 3.85343 12.595 3.83989 12.5784L2.52616 13.6492C2.68037 13.8384 2.87034 13.9954 3.08522 14.1111L3.88897 12.6189ZM3.83989 12.5784C3.82635 12.5618 3.81622 12.5427 3.81007 12.5222L2.18649 13.0085C2.25653 13.2423 2.37195 13.4601 2.52616 13.6492L3.83989 12.5784ZM3.81007 12.5222C3.80392 12.5016 3.80188 12.4801 3.80405 12.4588L2.11795 12.2866C2.09316 12.5294 2.11645 12.7747 2.18649 13.0085L3.81007 12.5222ZM3.80405 12.4588C3.80623 12.4375 3.81259 12.4168 3.82276 12.3979L2.33098 11.5935C2.21513 11.8083 2.14274 12.0438 2.11795 12.2866L3.80405 12.4588ZM3.82029 12.4025C3.83767 12.3707 3.85765 12.3509 3.8786 12.3369C3.90094 12.322 3.93213 12.3087 3.97307 12.3027L3.72911 10.6255C3.17079 10.7067 2.63954 11.0295 2.33344 11.5889L3.82029 12.4025ZM4.59363 11.8725L5.22918 10.717L3.74411 9.90018L3.10856 11.0557L4.59363 11.8725ZM5.02733 9.65604C4.69695 9.3823 4.41834 9.05557 4.21189 8.69313L2.73918 9.53202C3.05273 10.0825 3.46745 10.5646 3.94597 10.9611L5.02733 9.65604ZM3.25348 8.29475L2.38103 8.53164L2.82515 10.1673L3.69759 9.9304L3.25348 8.29475ZM1.80227 9.07226C1.78867 9.11157 1.75299 9.15208 1.69228 9.16912L2.15033 10.8009C2.74829 10.6331 3.20951 10.1883 3.4039 9.62667L1.80227 9.07226ZM1.62375 9.19154C1.64182 9.18477 1.65871 9.18006 1.67336 9.17688C1.68775 9.17376 1.69833 9.17248 1.7033 9.17199C1.70785 9.17154 1.7077 9.17177 1.69953 9.17198C1.69551 9.17208 1.69021 9.17216 1.68275 9.1722C1.67499 9.17225 1.6668 9.17225 1.65553 9.17225V10.8671C1.72957 10.8671 1.96351 10.8743 2.21886 10.7785L1.62375 9.19154ZM1.65553 9.17225C1.62516 9.17225 1.58712 9.16119 1.55425 9.13688C1.52422 9.11466 1.50631 9.08761 1.49808 9.05665L-0.13991 9.49206C0.0868605 10.3451 0.864897 10.8671 1.65553 10.8671V9.17225ZM1.49783 9.05573C1.47195 8.95879 1.52931 8.87213 1.60975 8.85051L1.16976 7.21375C0.17552 7.48102 -0.403824 8.5037 -0.139665 9.49298L1.49783 9.05573ZM1.70448 8.81895C1.65131 8.84022 1.61204 8.84454 1.60427 8.84529C1.60026 8.84568 1.60118 8.84541 1.61029 8.84519C1.62048 8.84494 1.63225 8.8449 1.65553 8.8449V7.15003C1.59506 7.15003 1.33746 7.14033 1.07502 7.24531L1.70448 8.81895ZM1.65553 8.8449C1.68842 8.8449 1.72782 8.85828 1.75807 8.88365L2.84721 7.58505C2.51924 7.30998 2.09642 7.15003 1.65553 7.15003V8.8449ZM2.52138 9.05307L3.27827 8.85085L2.84079 7.21341L2.0839 7.41563L2.52138 9.05307ZM3.88588 7.84427C3.83226 7.6084 3.80446 7.36741 3.80295 7.12553L2.10812 7.13606C2.11038 7.50083 2.15232 7.86428 2.23318 8.21999L3.88588 7.84427ZM3.13937 6.30354C3.0355 6.28046 2.98393 6.24841 2.95521 6.22167L1.8003 7.46214C2.10669 7.7474 2.45957 7.88868 2.7717 7.95805L3.13937 6.30354ZM2.98996 6.25594C2.91649 6.17918 2.91649 6.06018 2.98996 5.98342L1.76555 4.81149C1.0648 5.54362 1.0648 6.69573 1.76555 7.42787L2.98996 6.25594ZM2.95911 6.01404C3.00181 5.97378 3.05297 5.956 3.09998 5.956V4.26113C2.62698 4.26113 2.15815 4.4398 1.7964 4.78087L2.95911 6.01404ZM3.09998 5.956C3.11329 5.956 3.12782 5.95846 3.14347 5.96472L3.77293 4.39108C3.55747 4.30489 3.32933 4.26113 3.09998 4.26113V5.956ZM4.19899 5.58945C4.25227 5.49355 4.26197 5.49356 4.37197 5.31357L2.92577 4.42978C2.90865 4.45779 2.77969 4.65425 2.71741 4.76635L4.19899 5.58945ZM4.2481 4.27245L1.3072 1.33155L0.108745 2.53001L3.04964 5.4709L4.2481 4.27245ZM1.30484 2.53235L2.0444 1.79857L0.850658 0.595427L0.1111 1.32921L1.30484 2.53235ZM0.848151 1.79607L12.242 13.1957L13.4407 11.9975L2.04691 0.597924L0.848151 1.79607ZM9.01477 9.03913L5.09165 5.11601L3.8932 6.31446L7.81632 10.2376L9.01477 9.03913ZM3.75355 5.30025C3.45417 5.8333 3.26366 6.45447 3.26366 7.13079H4.95853C4.95853 6.77867 5.05691 6.44072 5.2313 6.13022L3.75355 5.30025ZM3.26366 7.13079C3.26366 9.19349 4.93729 10.8671 6.99999 10.8671V9.17225C5.87334 9.17225 4.95853 8.25744 4.95853 7.13079H3.26366ZM6.99999 10.8671C7.68053 10.8671 8.30337 10.6774 8.83489 10.3748L7.9962 8.90195C7.69572 9.07305 7.35945 9.17225 6.99999 9.17225V10.8671ZM4.91046 1.29377C4.54653 0.784272 3.97576 0.505565 3.38887 0.505565V2.20043C3.43753 2.20043 3.49077 2.22217 3.53128 2.2789L4.91046 1.29377ZM3.38887 0.505565C3.19502 0.505565 3.02503 0.541555 2.906 0.571312L3.31707 2.21558C3.34806 2.20783 3.36798 2.20387 3.38103 2.20183C3.39367 2.19986 3.39528 2.20043 3.38887 2.20043V0.505565ZM2.51231 1.99267L3.75453 3.2349L4.95299 2.03644L3.71076 0.794217L2.51231 1.99267ZM5.16859 2.86848C5.31125 2.36916 5.25752 1.78634 4.91363 1.29825L3.52811 2.27442C3.54245 2.29477 3.55805 2.33595 3.53893 2.40286L5.16859 2.86848Z" fill="#267DED" mask="url(#path-1-inside-1_9_1070)"/>
</svg>
