<svg width="16" height="13" viewBox="0 0 16 13" fill="none" xmlns="http://www.w3.org/2000/svg">
<path d="M12.4693 10.1982C12.882 10.6108 12.882 11.2795 12.4693 11.6915C12.0567 12.1042 11.388 12.1042 10.976 11.6915C10.5633 11.2788 10.5633 10.6102 10.976 10.1982C11.3887 9.78551 12.0573 9.78551 12.4693 10.1982Z" stroke="#267DED" stroke-linecap="round" stroke-linejoin="round"/>
<path d="M5.13626 10.1979C5.54893 10.6106 5.54893 11.2793 5.13626 11.6913C4.7236 12.1039 4.05493 12.1039 3.64293 11.6913C3.23093 11.2786 3.23026 10.6099 3.64293 10.1979C4.0556 9.78592 4.7236 9.78526 5.13626 10.1979Z" stroke="#267DED" stroke-linecap="round" stroke-linejoin="round"/>
<path d="M6.66692 0.666992H9.33359C9.70159 0.666992 10.0003 0.965659 10.0003 1.33366V8.00033H1.33359" stroke="#267DED" stroke-linecap="round" stroke-linejoin="round"/>
<path d="M3.33368 10.9443H2.00035C1.63235 10.9443 1.33368 10.6457 1.33368 10.2777V6.66699" stroke="#267DED" stroke-linecap="round" stroke-linejoin="round"/>
<path d="M10.0005 2.66699H12.8825C13.1552 2.66699 13.4005 2.83299 13.5012 3.08633L14.5718 5.76233C14.6345 5.91966 14.6672 6.08766 14.6672 6.25699V10.2223C14.6672 10.5903 14.3685 10.889 14.0005 10.889H12.7798" stroke="#267DED" stroke-linecap="round" stroke-linejoin="round"/>
<path d="M10.667 10.9473H5.44696" stroke="#267DED" stroke-linecap="round" stroke-linejoin="round"/>
<path d="M14.6672 7.33366H12.0005V4.66699H14.1338" stroke="#267DED" stroke-linecap="round" stroke-linejoin="round"/>
<path d="M1.33359 0.666992H4.66692" stroke="#267DED" stroke-linecap="round" stroke-linejoin="round"/>
<path d="M1.33368 2.66699H3.33368" stroke="#267DED" stroke-linecap="round" stroke-linejoin="round"/>
<path d="M2.00035 4.66699H1.33368" stroke="#267DED" stroke-linecap="round" stroke-linejoin="round"/>
</svg>
