<svg width="24" height="24" viewBox="0 0 24 24" fill="none" xmlns="http://www.w3.org/2000/svg">
<g clip-path="url(#clip0_9_645)">
<path d="M15.5488 3.12242H15.5488C15.9511 3.2565 16.3009 3.51375 16.5488 3.85774C16.7966 4.20172 16.93 4.61499 16.9298 5.03898V5.09367C16.9297 5.62186 17.1365 6.12908 17.5058 6.50662C17.8752 6.88417 18.3778 7.10199 18.9058 7.11341L19.024 7.11597C19.3916 7.12391 19.75 7.23205 20.0606 7.42871C20.3713 7.62538 20.6224 7.90311 20.7868 8.23197V8.23197C20.9764 8.61119 21.0418 9.04047 20.9739 9.45898C20.9059 9.87748 20.7079 10.264 20.4081 10.5637L20.3694 10.6023C19.9958 10.9757 19.7833 11.4806 19.7776 12.0088C19.7718 12.5369 19.9731 13.0463 20.3385 13.4278L20.4202 13.5131C20.6745 13.7786 20.8514 14.1085 20.9321 14.4672C21.0127 14.826 20.9938 15.1999 20.8775 15.5487V15.5487C20.7435 15.9509 20.4862 16.3007 20.1422 16.5486C19.7982 16.7965 19.385 16.9298 18.961 16.9297H18.9063C18.3781 16.9295 17.8709 17.1363 17.4934 17.5057C17.1158 17.875 16.898 18.3776 16.8866 18.9057L16.884 19.0238C16.8761 19.3914 16.7679 19.7498 16.5713 20.0605C16.3746 20.3711 16.0969 20.6222 15.768 20.7866V20.7866C15.3888 20.9762 14.9595 21.0417 14.541 20.9737C14.1225 20.9057 13.736 20.7078 13.4363 20.4079L13.3976 20.3692C13.0243 19.9956 12.5194 19.7832 11.9912 19.7774C11.4631 19.7716 10.9537 19.973 10.5722 20.3383L10.4869 20.42C10.2214 20.6743 9.89147 20.8513 9.53275 20.9319C9.17404 21.0125 8.80012 20.9936 8.45133 20.8774C8.0491 20.7433 7.69926 20.486 7.4514 20.142C7.20353 19.7981 7.07021 19.3848 7.07033 18.9608V18.9061C7.07047 18.378 6.8637 17.8707 6.49433 17.4932C6.12496 17.1156 5.62238 16.8978 5.09433 16.8864L4.97619 16.8838C4.60861 16.8759 4.25017 16.7678 3.93953 16.5711C3.62888 16.3744 3.37781 16.0967 3.2134 15.7678V15.7678C3.02378 15.3886 2.95831 14.9594 3.02626 14.5409C3.09422 14.1224 3.29215 13.7359 3.59201 13.4362L3.6307 13.3975C4.00428 13.0241 4.21673 12.5193 4.22252 11.9911C4.2283 11.463 4.02696 10.9536 3.66165 10.5721L3.57989 10.4867C3.3256 10.2212 3.14861 9.89126 3.06802 9.53255C2.98742 9.17383 3.00627 8.79993 3.12253 8.45114V8.45114C3.2566 8.0489 3.51386 7.69907 3.85785 7.45121C4.20184 7.20334 4.61511 7.07002 5.0391 7.07014H5.09377C5.62195 7.07028 6.12917 6.86351 6.50671 6.49414C6.88426 6.12477 7.10208 5.62219 7.1135 5.09414L7.11606 4.97599C7.124 4.60842 7.23213 4.25 7.42879 3.93936C7.62545 3.62871 7.90317 3.37765 8.23201 3.21322C8.61123 3.02361 9.04051 2.95815 9.45902 3.02613C9.87752 3.0941 10.264 3.29206 10.5637 3.59195L10.6024 3.63059C10.9757 4.00418 11.4806 4.21664 12.0088 4.22242C12.537 4.22819 13.0464 4.02683 13.4278 3.6615L13.5131 3.57983C13.7786 3.3255 14.1086 3.1485 14.4673 3.06789C14.826 2.98729 15.2 3.00614 15.5488 3.12242V3.12242Z" stroke="#9D9D9D" stroke-linecap="round" stroke-linejoin="round"/>
<path d="M12 14.5C13.3807 14.5 14.5 13.3807 14.5 12C14.5 10.6193 13.3807 9.5 12 9.5C10.6193 9.5 9.5 10.6193 9.5 12C9.5 13.3807 10.6193 14.5 12 14.5Z" stroke="#9D9D9D" stroke-linecap="round" stroke-linejoin="round"/>
</g>
<defs>
<clipPath id="clip0_9_645">
<rect width="24" height="24" fill="white"/>
</clipPath>
</defs>
</svg>
