<svg width="24" height="24" viewBox="0 0 24 24" fill="none" xmlns="http://www.w3.org/2000/svg">
<g clip-path="url(#clip0_9_669)">
<path d="M15.5489 3.12242H15.5489C15.9512 3.2565 16.301 3.51375 16.5489 3.85774C16.7967 4.20172 16.9301 4.61499 16.9299 5.03898V5.09367C16.9298 5.62186 17.1366 6.12908 17.5059 6.50662C17.8753 6.88417 18.3779 7.10199 18.9059 7.11341L19.0241 7.11597C19.3917 7.12391 19.7501 7.23205 20.0607 7.42871C20.3714 7.62538 20.6225 7.90311 20.7869 8.23197V8.23197C20.9765 8.61119 21.0419 9.04047 20.974 9.45898C20.906 9.87748 20.708 10.264 20.4081 10.5637L20.3695 10.6023C19.9959 10.9757 19.7834 11.4806 19.7777 12.0088C19.7719 12.5369 19.9732 13.0463 20.3386 13.4278L20.4202 13.5131C20.6745 13.7786 20.8515 14.1085 20.9321 14.4672C21.0127 14.826 20.9939 15.1999 20.8776 15.5487V15.5487C20.7436 15.9509 20.4863 16.3007 20.1423 16.5486C19.7983 16.7965 19.3851 16.9298 18.9611 16.9297H18.9064C18.3782 16.9295 17.871 17.1363 17.4935 17.5057C17.1159 17.875 16.8981 18.3776 16.8867 18.9057L16.8841 19.0238C16.8762 19.3914 16.768 19.7498 16.5714 20.0605C16.3747 20.3711 16.097 20.6222 15.7681 20.7866V20.7866C15.3889 20.9762 14.9596 21.0417 14.5411 20.9737C14.1226 20.9057 13.7361 20.7078 13.4364 20.4079L13.3977 20.3692C13.0244 19.9956 12.5195 19.7832 11.9913 19.7774C11.4632 19.7716 10.9538 19.973 10.5723 20.3383L10.487 20.42C10.2215 20.6743 9.89156 20.8513 9.53284 20.9319C9.17413 21.0125 8.80021 20.9936 8.45142 20.8774C8.04919 20.7433 7.69935 20.486 7.45149 20.142C7.20363 19.7981 7.0703 19.3848 7.07042 18.9608V18.9061C7.07056 18.378 6.86379 17.8707 6.49442 17.4932C6.12505 17.1156 5.62248 16.8978 5.09442 16.8864L4.97628 16.8838C4.6087 16.8759 4.25026 16.7678 3.93962 16.5711C3.62897 16.3744 3.37791 16.0967 3.21349 15.7678V15.7678C3.02387 15.3886 2.9584 14.9594 3.02636 14.5409C3.09431 14.1224 3.29224 13.7359 3.5921 13.4362L3.63079 13.3975C4.00437 13.0241 4.21682 12.5193 4.22261 11.9911C4.22839 11.463 4.02705 10.9536 3.66174 10.5721L3.57998 10.4867C3.32569 10.2212 3.1487 9.89126 3.06811 9.53255C2.98751 9.17383 3.00636 8.79993 3.12262 8.45114V8.45114C3.25669 8.0489 3.51395 7.69907 3.85794 7.45121C4.20193 7.20334 4.6152 7.07002 5.03919 7.07014H5.09386C5.62204 7.07028 6.12926 6.86351 6.5068 6.49414C6.88435 6.12477 7.10217 5.62219 7.11359 5.09414L7.11615 4.97599C7.12409 4.60842 7.23223 4.25 7.42888 3.93936C7.62554 3.62871 7.90326 3.37765 8.2321 3.21322C8.61132 3.02361 9.04061 2.95815 9.45911 3.02613C9.87761 3.0941 10.2641 3.29206 10.5638 3.59195L10.6025 3.63059C10.9758 4.00418 11.4807 4.21664 12.0089 4.22242C12.537 4.22819 13.0465 4.02683 13.4279 3.6615L13.5132 3.57983C13.7787 3.3255 14.1087 3.1485 14.4674 3.06789C14.8261 2.98729 15.2001 3.00614 15.5489 3.12242V3.12242Z" stroke="#267DED" stroke-linecap="round" stroke-linejoin="round"/>
<path d="M12 14.5C13.3807 14.5 14.5 13.3807 14.5 12C14.5 10.6193 13.3807 9.5 12 9.5C10.6193 9.5 9.5 10.6193 9.5 12C9.5 13.3807 10.6193 14.5 12 14.5Z" stroke="#267DED" stroke-linecap="round" stroke-linejoin="round"/>
</g>
<defs>
<clipPath id="clip0_9_669">
<rect width="24" height="24" fill="white"/>
</clipPath>
</defs>
</svg>
