<svg width="20" height="4" viewBox="0 0 20 4" fill="none" xmlns="http://www.w3.org/2000/svg">
<path d="M16.75 2.00001C16.75 2.24721 16.8233 2.48891 16.9607 2.69451C17.098 2.90001 17.2932 3.06021 17.5216 3.15481C17.7501 3.24951 18.0014 3.27421 18.2439 3.22601C18.4863 3.17781 18.7091 3.05871 18.8839 2.88391C19.0587 2.70911 19.1777 2.48631 19.226 2.24391C19.2742 2.00141 19.2495 1.75011 19.1549 1.52161C19.0602 1.29321 18.9 1.09801 18.6945 0.960707C18.4889 0.823307 18.2472 0.750007 18 0.750007C17.6685 0.750007 17.3505 0.881708 17.1161 1.11611C16.8817 1.35051 16.75 1.66851 16.75 2.00001ZM11.25 2.00001C11.25 1.75281 11.1767 1.51111 11.0393 1.30551C10.902 1.10001 10.7068 0.939807 10.4784 0.845207C10.2499 0.750507 9.9986 0.725808 9.7561 0.774008C9.5137 0.822308 9.2909 0.941308 9.1161 1.11611C8.9413 1.29091 8.8223 1.51371 8.774 1.75611C8.7258 1.99861 8.7505 2.24991 8.8452 2.47841C8.9398 2.70681 9.1 2.90201 9.3055 3.03931C9.5111 3.17671 9.7528 3.25001 10 3.25001C10.3315 3.25001 10.6495 3.11831 10.8839 2.88391C11.1183 2.64951 11.25 2.33151 11.25 2.00001ZM3.25 2.00001C3.25 1.75281 3.17669 1.51111 3.03934 1.30551C2.90199 1.10001 2.70676 0.939807 2.47836 0.845207C2.24995 0.750507 1.99861 0.725808 1.75614 0.774008C1.51366 0.822308 1.29093 0.941308 1.11612 1.11611C0.941299 1.29091 0.822249 1.51371 0.774019 1.75611C0.725789 1.99861 0.750539 2.24991 0.845149 2.47841C0.939759 2.70681 1.09998 2.90201 1.30554 3.03931C1.5111 3.17671 1.75277 3.25001 2 3.25001C2.33152 3.25001 2.64946 3.11831 2.88388 2.88391C3.1183 2.64951 3.25 2.33151 3.25 2.00001Z" fill="#267DED"/>
</svg>
